<svg xmlns="http://www.w3.org/2000/svg" viewBox="0 0 120 120" role="img" aria-labelledby="title">
  <title id="title">GitHub</title>
  <circle cx="60" cy="60" r="52" fill="#111827"/>
  <path d="M60 27c-19 0-35 15-35 35 0 15 10 28 23 33 2 0 3-1 3-2v-10c-9 2-11-4-11-4-2-4-4-5-4-5-3-2 0-2 0-2 4 0 6 4 6 4 3 6 9 4 11 3 0-3 1-4 2-5-7-1-15-4-15-17 0-4 1-7 4-10-1-1-2-5 0-10 0 0 3-1 10 4 3-1 6-1 9-1s6 0 9 1c7-5 10-4 10-4 2 5 1 9 0 10 3 3 4 6 4 10 0 13-8 16-15 17 1 1 2 4 2 8v11c0 1 1 2 3 2 13-5 23-18 23-33 0-20-16-35-39-35z" fill="#fff"/>
</svg>
